<mxfile host="app.diagrams.net" modified="2024-04-22T07:08:20.664Z" agent="Mozilla/5.0 (Macintosh; Intel Mac OS X 10_15_7) AppleWebKit/537.36 (KHTML, like Gecko) Chrome/120.0.0.0 Safari/537.36" version="24.2.2" etag="jH3OZhADs51bxmCwN4S9" type="github">
  <diagram name="第 1 页" id="7FRHAYxtJhJ6s75s6SR8">
    <mxGraphModel>
      <root>
        <mxCell id="0" />
        <mxCell id="1" parent="0" />
      </root>
    </mxGraphModel>
  </diagram>
</mxfile>
